PathFileType	3	(X/Y/Z)	D:\minhoCalibration\240510\subject5_KPNP\preferred\preferred12.trc
DataRate	CameraRate	NumFrames	NumMarkers	Units	OrigDataRate	OrigDataStartFrame	OrigNumFrames
200.0	200.0	33	10	mm	200.0	140	141	
Frame#	Time	Left_Ankle_Outer1			Left_Ankle_Inner1			Left_Knee_Outer1			Left_Knee_Inner1			Left_Wrist1			Right_Wrist1			Right_Knee_Inner1			Right_Knee_Outer1			Right_Ankle_Inner1			Right_Ankle_Outer1			
		X1	Y1	Z1	X2	Y2	Z2	X3	Y3	Z3	X4	Y4	Z4	X5	Y5	Z5	X6	Y6	Z6	X7	Y7	Z7	X8	Y8	Z8	X9	Y9	Z9	X10	Y10	Z10	
140	0.69	-477.79407	73.241089	-605.14313	-524.84277	84.07251	-590.42627	-377.74823	532.89252	-495.2496	-469.11652	517.56537	-474.35825	-374.0368	1006.0522	-677.14325	-697.48309	1030.6271	-725.6123	-764.64111	484.90948	-627.02399	-834.7796	536.22113	-660.7442	-660.4325	212.6019	-986.0838	-716.36584	277.28445	-1034.1359
141	0.695	-477.64261	73.177132	-605.06647	-524.61078	84.206345	-590.52844	-376.60431	532.6662	-494.88907	-467.79657	517.64825	-473.8873	-371.13333	1006.9809	-675.37268	-693.83234	1031.1135	-723.76874	-765.08606	488.98636	-609.20801	-836.00385	540.98383	-640.33514	-666.18115	221.6311	-971.4743	-723.83514	286.04758	-1017.527
142	0.7	-477.0748	73.636574	-605.64893	-524.54224	84.314125	-590.56616	-375.11194	532.4303	-494.98288	-466.51318	517.63416	-473.6828	-368.03302	1007.963	-673.85638	-691.18207	1033.1387	-718.63104	-765.42542	494.12079	-590.13562	-836.96906	546.3183	-620.03644	-671.61017	230.69395	-956.16949	-730.60034	294.95154	-1000.5277
143	0.705	-477.21082	73.361824	-605.10876	-524.34326	84.47403	-590.53711	-373.6337	532.16888	-495.15732	-465.05099	517.52966	-473.63406	-365.1456	1008.6519	-672.59247	-688.96497	1035.1178	-712.56702	-765.31897	499.27313	-571.47595	-837.79541	551.73169	-600.08374	-676.80554	239.53688	-940.44153	-736.73926	303.92517	-983.29834
144	0.71	-476.72733	73.757324	-605.68738	-524.19739	84.586273	-590.5155	-372.42075	531.89722	-495.38983	-463.68204	517.53064	-473.80502	-362.49841	1009.2073	-671.50677	-688.89935	1036.8113	-704.05896	-764.80737	504.4408	-553.31799	-837.80988	558.17584	-580.51276	-681.31793	248.44678	-924.35956	-742.37085	312.70331	-965.91003
145	0.715	-476.93076	73.470055	-605.22052	-524.0658	84.769379	-590.53461	-370.50906	531.50562	-496.03506	-462.27719	517.3858	-473.75165	-359.44946	1010.0069	-670.57452	-687.75171	1038.8004	-696.71832	-764.50958	510.79208	-534.78876	-838.02972	565.68134	-559.22137	-685.16162	257.65109	-908.08801	-747.46179	321.54837	-948.41235
146	0.72	-476.55151	73.919197	-605.78088	-524.11267	84.892754	-590.49683	-369.4718	531.38971	-496.23932	-460.63843	517.34125	-474.07831	-356.98935	1010.3024	-670.09082	-683.47626	1040.922	-694.02704	-763.98016	517.51355	-516.1991	-837.81073	572.43298	-539.91437	-688.79816	266.80576	-891.90729	-752.13788	330.55469	-930.80994
147	0.725	-476.44424	74.069656	-605.76862	-523.75867	85.089203	-590.63824	-367.8526	531.15051	-496.97159	-459.01511	517.27118	-474.22955	-354.28348	1010.7687	-669.76801	-681.42316	1043.0023	-688.94495	-763.0188	524.90656	-497.19394	-837.13898	580.24066	-519.91809	-692.1897	276.15787	-875.61218	-756.32861	339.73642	-913.02869
148	0.73	-476.33536	74.058365	-605.7995	-523.59686	85.238419	-590.6145	-366.32065	530.92993	-497.89307	-457.20929	516.90051	-475.29907	-351.60437	1011.0659	-669.74261	-680.83514	1046.5905	-679.53864	-761.46814	532.65472	-478.53091	-836.04291	589.03882	-499.37247	-695.36426	285.43076	-858.82697	-760.12128	349.14447	-895.08594
149	0.735	-476.03348	74.254128	-605.92499	-523.14026	85.489525	-590.60187	-364.71918	530.73163	-499.01126	-455.46326	517.26892	-474.92422	-349.30798	1011.1388	-669.87506	-677.04749	1050.3763	-674.81293	-759.51056	541.13409	-459.47318	-834.20551	597.84827	-479.61169	-697.99341	295.04398	-841.9342	-763.5614	358.89285	-877.09381
150	0.74	-475.76834	74.314598	-606.09058	-522.86969	85.782799	-590.60516	-363.04095	530.67865	-500.17636	-453.32117	516.83936	-476.08762	-347.29175	1010.9957	-670.38269	-674.68683	1053.505	-668.34369	-757.59967	550.73334	-440.42044	-831.70508	607.09576	-460.12448	-702.0672	304.13953	-824.63892	-766.91107	368.81979	-858.62579
151	0.745	-475.48706	74.673111	-606.20087	-522.48242	86.115654	-590.63531	-361.29868	530.53876	-501.65927	-451.50589	517.28516	-475.83017	-344.74988	1011.2524	-671.18542	-672.11035	1055.3428	-663.0636	-754.72144	560.13892	-421.49268	-828.88605	617.2887	-440.02664	-705.61957	313.60791	-807.11597	-770.01123	379.20746	-840.16425
152	0.75	-475.13657	74.991928	-606.31543	-522.13367	86.503899	-590.62036	-359.78226	530.47388	-503.33786	-449.3428	516.85419	-477.53149	-342.65701	1011.4635	-672.03229	-669.38739	1060.3759	-654.92957	-751.31348	570.13678	-402.56577	-825.49585	627.74786	-420.41113	-708.52289	323.58597	-789.95654	-773.14917	390.0535	-821.5719
153	0.755	-475.30002	75.081612	-605.9823	-521.86511	86.871918	-590.7049	-357.81372	530.48029	-505.08905	-447.30862	517.09393	-477.81223	-341.02161	1011.61	-673.05054	-667.65466	1062.7894	-647.51685	-747.22681	580.39453	-383.90903	-821.59265	638.77039	-400.95349	-712.82239	333.53503	-772.11023	-776.31921	401.3569	-802.85132
154	0.76	-474.57898	75.342567	-606.49817	-521.375	87.288475	-590.76624	-356.26816	530.43213	-506.97028	-445.10181	517.92572	-478.13123	-339.34961	1011.8907	-674.34436	-664.34302	1066.5908	-641.23999	-743.11249	591.19666	-365.1073	-817.46326	650.05426	-381.44293	-717.58588	343.8606	-754.354	-779.81885	413.02325	-784.0932
155	0.765	-473.98593	75.808342	-606.78986	-520.98157	87.817184	-590.30566	-354.50467	530.77527	-508.81982	-443.02603	518.36731	-478.81509	-337.67462	1012.1617	-675.94324	-661.46588	1070.5083	-634.19604	-738.37311	602.44012	-346.49936	-812.20392	661.99945	-362.31421	-721.1955	354.9722	-737.36469	-783.54089	425.08841	-765.29248
156	0.77	-472.50143	76.957626	-607.56866	-520.29852	88.28447	-590.35364	-352.78094	531.01007	-510.76501	-441.27029	518.99109	-478.43542	-336.33585	1012.5079	-677.57703	-657.21161	1073.8613	-630.09363	-733.29694	613.97736	-328.19528	-806.61536	674.06427	-343.43179	-725.71143	366.49799	-720.07117	-787.64514	437.61642	-746.52625
157	0.775	-472.79996	76.882088	-607.29755	-519.71021	88.792702	-590.1886	-351.10373	531.22955	-512.599	-439.02878	519.40149	-479.04306	-335.17419	1012.8059	-679.54535	-655.36597	1078.1271	-620.96069	-727.4505	625.79596	-310.17566	-800.49506	686.78522	-324.27307	-731.01935	378.49762	-702.53925	-791.97882	450.73865	-727.79034
158	0.78	-472.51187	77.013641	-607.46594	-519.05713	89.252312	-590.69104	-349.34604	531.4704	-514.59497	-436.79169	519.56982	-480.00122	-334.29581	1013.0683	-681.7403	-652.12054	1081.1204	-615.33154	-721.19482	637.83276	-292.57306	-793.6947	699.59155	-306.05313	-735.52631	390.97446	-685.77386	-796.62024	464.27576	-709.14471
159	0.785	-471.68372	77.891052	-607.53174	-518.26312	89.882393	-590.21057	-347.83554	531.77203	-516.57404	-434.61157	520.10333	-480.49445	-333.61423	1013.191	-684.2074	-648.50299	1085.439	-608.31415	-714.565	650.05231	-275.32062	-786.30493	712.83722	-288.05029	-740.73718	403.9043	-668.56335	-801.28033	478.02399	-690.28143
160	0.79	-470.57077	78.555077	-607.92523	-516.30017	89.883453	-589.98291	-346.12109	532.02191	-518.62769	-432.53693	520.59125	-480.84061	-333.34048	1013.2379	-686.88684	-645.30487	1088.4735	-602.1474	-707.35522	662.33496	-258.23453	-778.59564	726.12762	-270.55252	-746.15887	417.27017	-651.37726	-806.07855	492.3302	-671.6781
161	0.795	-470.22058	78.495682	-607.75702	-516.08197	90.898117	-590.48102	-344.75931	532.38312	-520.38123	-430.46536	521.05212	-481.51529	-333.25378	1013.0098	-689.97754	-642.04926	1092.2744	-595.45172	-700.02643	675.0235	-241.91418	-770.20898	740.36621	-252.92953	-751.50964	430.78992	-634.5094	-810.84308	507.13116	-652.77435
162	0.8	-469.81012	78.788055	-607.73431	-514.5957	91.085564	-590.55908	-343.03033	532.89807	-522.20917	-428.112	521.58673	-481.69928	-333.71387	1012.4749	-693.1521	-639.17041	1096.0918	-589.43738	-692.15411	687.82581	-225.75246	-761.5976	754.55157	-235.56879	-757.3175	444.80975	-616.88373	-815.60535	522.09192	-633.75616
163	0.805	-469.16937	79.880333	-608.07001	-515.18695	92.218727	-590.28088	-341.16568	533.18854	-523.89233	-425.4115	522.22174	-482.62457	-334.45813	1011.856	-696.62042	-633.09296	1101.1595	-588.37231	-683.77222	700.7121	-210.17741	-751.83026	768.83661	-219.28207	-763.10938	459.02597	-599.4931	-820.21179	537.65619	-615.08557
164	0.81	-469.39975	80.338226	-608.20618	-515.27063	93.053711	-589.56134	-339.51471	533.46399	-525.44867	-423.08987	522.52692	-481.5625	-335.93051	1010.7517	-700.03906	-631.21875	1105.332	-578.86047	-674.70966	713.73273	-195.13905	-741.88867	783.40704	-202.78038	-769.00696	473.56934	-582.12177	-824.74243	553.42767	-596.25043
165	0.815	-470.14828	81.131958	-607.86328	-515.0863	94.693535	-587.9519	-337.73624	533.76025	-526.76874	-420.46091	523.09271	-481.50842	-337.40027	1009.76	-703.9754	-626.66815	1110.0859	-575.55554	-664.63348	726.60791	-180.55632	-730.68945	798.10162	-187.63919	-775.00214	488.48837	-564.59814	-829.27905	569.70984	-577.12152
166	0.82	-471.30902	82.011566	-607.44696	-516.31799	94.986412	-587.31464	-335.65198	534.09131	-528.24359	-417.48169	523.61328	-480.16827	-339.5174	1008.4344	-707.89539	-622.5694	1114.6876	-564.65533	-654.77142	739.73138	-166.20471	-718.83777	812.79083	-172.85686	-781.06445	503.65341	-547.02808	-833.76697	586.1546	-558.20459
167	0.825	-473.83167	82.312988	-605.84906	-517.7879	96.192795	-585.23816	-333.58249	534.14062	-529.23895	-414.15094	523.4989	-479.3353	-341.85172	1007.1707	-711.8349	-616.14392	1119.3209	-556.52631	-643.84326	753.06012	-153.41051	-706.18622	827.62042	-158.75685	-787.28619	519.18982	-529.50964	-838.23108	602.92957	-539.19928
168	0.83	-475.54004	83.856003	-605.51941	-519.71112	97.911766	-583.04181	-331.37271	534.15796	-530.20227	-410.73541	523.3927	-479.49448	-345.06689	1005.3448	-716.15735	-610.2785	1123.9403	-551.72015	-632.10278	766.07953	-141.12004	-692.74493	842.03253	-145.78773	-793.51367	535.11481	-511.72577	-842.5332	619.96631	-520.06769
169	0.835	-478.1463	85.391815	-604.17511	-521.6615	99.354057	-581.19647	-328.93634	534.24231	-531.06781	-406.85648	523.72278	-477.62506	-348.64133	1003.4656	-720.35852	-604.99652	1128.0004	-545.68359	-620.32617	779.03607	-129.02477	-678.87445	857.02594	-132.71605	-799.85034	551.16943	-493.82626	-846.76288	637.32166	-500.76044
170	0.84	-481.20981	86.828629	-602.67072	-524.21332	101.30051	-577.88293	-326.65967	534.19159	-531.79822	-402.59512	523.96509	-475.92276	-352.44992	1001.6381	-724.42786	-601.05133	1132.2676	-540.32648	-607.97369	792.02722	-118.08163	-664.09247	871.24164	-121.50008	-806.13531	567.50403	-475.50739	-850.84088	654.96674	-481.3414
171	0.845	-484.84576	88.349533	-600.64008	-526.88556	103.15762	-574.75836	-324.85431	533.9325	-532.37909	-398.17023	523.98688	-473.87494	-356.63876	999.85724	-728.21381	-594.75909	1135.8322	-537.68286	-595.19037	804.77509	-107.82375	-648.85632	885.80957	-110.45956	-812.39935	584.13916	-456.66043	-854.62646	672.78589	-461.39288
172	0.85	-488.3176	90.202164	-598.53662	-529.23553	105.25102	-571.89319	-322.33746	534.08997	-533.17279	-393.69238	524.89398	-470.44559	-361.866	997.08051	-732.77185	-589.19489	1140.0381	-533.41614	-581.89679	817.42145	-98.605965	-633.27081	900.07135	-100.23872	-818.66064	600.75732	-437.33704	-858.26154	690.77844	-441.23795
